# WaveFront *.obj file (generated by CINEMA 4D)

mtllib ./Meat.mtl

v 97.10045623779297 51.9580192565918 -24.41443824768066
v 66.27197265625 42.56621551513672 -59.54148101806641
v 98.94187164306641 45.53858184814453 -13.30629253387451
v 102.68909454345703 45.53858184814453 -22.83374214172363
v 64.33929443359375 51.9580192565918 -63.40052032470703
v 68.27665710449219 51.9580192565918 -62.0108642578125
v 70.52763366699219 45.5385856628418 -64.78365325927734
v 66.13434600830078 45.5385856628418 -66.334228515625
v 40.59848785400391 51.9580192565918 -63.54574584960938
v 44.18842315673828 51.9580192565918 -65.97765350341797
v 43.65012359619141 45.5385856628418 -69.20978546142578
v 39.64447021484375 45.5385856628418 -66.49625396728516
v 77.52940368652344 51.95801544189453 -8.98533725738525
v 47.61061477661133 42.56621551513672 -66.47473907470703
v 20.05239295959473 42.56621551513672 -62.26829528808594
v 80.85181427001953 45.53858184814453 -5.61801242828369
v 19.1745777130127 51.9580192565918 -37.72122955322266
v 16.85847282409668 51.9580192565918 -39.80573272705078
v 13.15547275543213 45.5385856628418 -40.00727462768555
v 15.73975944519043 45.5385856628418 -37.68140411376953
v 89.11132049560547 42.56621170043945 -18.16401481628418
v 7.47828006744385 51.9580192565918 -45.43264389038086
v 31.85281181335449 42.56621170043945 -14.12523746490479
v 2.68909192085266 45.5385856628418 -46.2857551574707
v 29.8999080657959 51.9580192565918 -11.3725757598877
v 23.58852577209473 51.95801544189453 -14.0360803604126
v 20.66485214233398 45.53858184814453 -11.25362491607666
v 82.67181396484375 42.56621170043945 -13.43826007843018
v 88.65833282470703 51.9580192565918 -51.93583679199219
v 91.66924285888672 51.9580192565918 -39.89210510253906
v 96.62899017333984 45.5385856628418 -40.10366439819336
v 60.70734405517578 45.5385856628418 -72.79496002197266
v 16.74265480041504 51.9580192565918 -65.05120086669922
v 58.37842559814453 42.56621551513672 -65.98097991943359
v 22.71736145019531 45.5385856628418 -67.142333984375
v 31.1137638092041 42.56621551513672 -61.02194595336914
v 47.31119155883789 45.5385856628418 -73.40925598144531
v 11.74338340759277 42.56621170043945 -44.67287445068359
v 44.56956481933594 45.53858184814453 -6.98954153060913
v 48.66134643554688 45.53858184814453 -5.50357913970947
v 31.79731559753418 51.9580192565918 -63.08251953125
v 29.82415962219238 45.5385856628418 -65.97940826416016
v 72.21401977539062 51.9580192565918 -65.60082244873047
v 74.92094421386719 45.5385856628418 -68.789306640625
v 86.56218719482422 51.95801544189453 -10.60661792755127
v 90.93056488037109 45.53858184814453 -7.42701816558838
v 21.19488716125488 42.56621170043945 -38.69148254394531
v 4.7565279006958 45.5385856628418 -43.67829513549805
v 71.62334442138672 51.95801544189453 -7.42197561264038
v 58.07418060302734 51.95801544189453 -7.47985935211182
v 59.14377212524414 45.53858184814453 -3.93823337554932
v 14.80734157562256 42.56621170043945 -41.7767333984375
v 22.43047714233398 51.95801544189453 -17.7418384552002
v 19.37270927429199 45.53858184814453 -15.38850498199463
v 95.25920104980469 51.9580192565918 -32.10614776611328
v 100.63465118408203 45.5385856628418 -31.41610336303711
v 45.40687942504883 42.56621170043945 -13.08662509918213
v 13.02626895904541 45.5385856628418 -68.17603302001953
v 45.01245880126953 51.95801544189453 -10.21452140808105
v 26.19230651855469 42.56621170043945 -16.51408958435059
v 25.42803382873535 51.9580192565918 -64.12477111816406
v 25.24552917480469 42.56621170043945 -25.81250953674316
v 69.80329895019531 42.56621551513672 -62.76123046875
v 78.40973663330078 45.5385856628418 -68.66010284423828
v 93.74209594726562 51.95801544189453 -15.87573146820068
v 92.12333679199219 42.56621170043945 -25.82215690612793
v 84.55181121826172 42.56621551513672 -50.50543594360352
v 19.48699760437012 45.53858184814453 -22.82172584533691
v 10.89452075958252 51.9580192565918 -42.2034912109375
v 69.27354431152344 42.56621170043945 -10.58203220367432
v 72.60760498046875 42.56621551513672 -62.65738677978516
v 74.26187133789062 45.53858184814453 -3.87362837791443
v 22.53291320800781 51.9580192565918 -24.40366744995117
v 17.67799186706543 45.5385856628418 -27.08581352233887
v 14.42656803131104 51.9580192565918 -63.19831848144531
v 10.4419641494751 45.5385856628418 -66.10858917236328
v 41.44810485839844 42.56621551513672 -60.9180793762207
v 24.67050552368164 45.53858184814453 -8.92775821685791
v 75.34074401855469 51.9580192565918 -65.48500061035156
v 93.26941680908203 45.5385856628418 -53.54197311401367
v 47.46958160400391 51.9580192565918 -69.74130249023438
v 59.47548294067383 51.9580192565918 -69.19075775146484
# 82 vertices

vn 0.69161355495453 0.66908627748489 0.27201896905899
vn 0.69161331653595 0.66908693313599 0.27201795578003
vn 0 0 0
vn 0.29479724168777 0.46415066719055 -0.83525967597961
vn 0.29479765892029 0.46415048837662 -0.83525967597961
vn -0.50877571105957 0.42080739140511 -0.75104486942291
vn -0.50877606868744 0.42080760002136 -0.75104451179504
vn 0.00000001290788 -1 -0.00000005514835
vn 0 -1 0
vn -0.62890881299973 0.34084269404411 0.6987846493721
vn -0.62890899181366 0.34084266424179 0.69878447055817
vn -0.00000002359908 1 0.00000008131046
vn -0.00000001545555 1 0.0000000317213
vn -0.00000003077919 1 0.00000007579998
vn -0.32336908578873 0.55524522066116 0.76624745130539
vn -0.37727552652359 0.53688752651215 0.75459587574005
vn 0.77330803871155 0.60383760929108 -0.19332553446293
vn 0.77330738306046 0.60383838415146 -0.19332601130009
vn 0.0976964533329 0.38928943872452 -0.91591984033585
vn 0.09769670665264 0.38928964734077 -0.91591972112656
vn -0.30582654476166 0.44416779279709 0.84213125705719
vn -0.04762433096766 0.42298439145088 -0.90488457679749
vn -0.04762528091669 0.42298346757889 -0.90488499403
vn -0.67144989967346 0.08264567703009 -0.73642694950104
vn -0.6714488863945 0.08264528214931 -0.73642796278
vn 0.15097041428089 0.5193487405777 0.84112119674683
vn 0.1509710252285 0.51934826374054 0.84112137556076
vn -0.36673045158386 0.18290747702122 0.91216975450516
vn -0.3807507455349 0.17643646895885 0.90768885612488
vn -0.00374278216623 0.48258385062218 0.87584179639816
vn -0.00374225247651 0.48258310556412 0.87584221363068
vn -0.83137053251266 0.49124944210052 0.25980186462402
vn -0.83137047290802 0.49124926328659 0.25980249047279
vn 0.73856770992279 0.58185088634491 -0.34053963422775
vn 0.73856800794601 0.58185064792633 -0.34053936600685
vn 0.05822830274701 -0.99324959516525 -0.10032282024622
vn -0.00634919246659 -0.99814784526825 0.06050247326493
vn 0.1409207880497 -0.90593647956848 -0.3992748260498
vn 0.2641407251358 -0.89609527587891 -0.35671132802963
vn 0.1501590013504 0.36794695258141 -0.91764223575592
vn 0.1501596570015 0.3679473400116 -0.91764199733734
vn 0.03295000642538 0.45571100711823 -0.88951772451401
vn 0.03294618427753 0.45571127533913 -0.88951772451401
vn 0.46156427264214 0.62561023235321 0.62894374132156
vn 0.46156343817711 0.62561070919037 0.62894386053085
vn -0.90469455718994 0.42583367228508 -0.01390999089926
vn -0.90469437837601 0.42583391070366 -0.01391041465104
vn -0.13097947835922 0.46208220720291 0.87711143493652
vn -0.15340079367161 0.48924434185028 0.85855007171631
vn -0.41165021061897 -0.88692617416382 0.20953775942326
vn -0.4259774684906 -0.86823344230652 0.25438919663429
vn -0.42295038700104 -0.90034574270248 0.10242338478565
vn 0.76336717605591 0.61957895755768 -0.18273620307446
vn 0.76336771249771 0.61957848072052 -0.18273541331291
vn -0.010064503178 -0.98070049285889 0.19525672495365
vn -0.01974504441023 -0.92351061105728 0.38306438922882
vn -0.81237560510635 0.47038933634758 0.34464436769485
vn -0.50173264741898 0.59575790166855 -0.62716579437256
vn -0.50173383951187 0.59575760364532 -0.62716507911682
vn -0.06816893070936 0.45161959528923 0.88960260152817
vn -0.07817193120718 0.43412265181541 0.89745569229126
vn 0.00000004502442 -1 -0.00000009108401
vn -0.61689007282257 0.43990859389305 0.65263092517853
vn -0.65995246171951 0.4452021420002 0.60519236326218
vn 0.24428124725819 -0.96493303775787 0.09607789665461
vn 0.24428121745586 -0.96493303775787 0.09607776254416
vn 0.03980293497443 0.49497526884079 -0.86799496412277
vn 0.03980291634798 0.49497526884079 -0.86799490451813
vn 0.00000005652941 -1 -0.00000008686355
vn 0.00000004828389 -1 -0.00000003204692
vn -0.03288923576474 -0.99341487884521 -0.10975060611963
vn 0.68265384435654 0.45295041799545 -0.57342797517776
vn 0.68265354633331 0.45294958353043 -0.57342898845673
vn -0.70128238201141 0.36663043498993 -0.61137968301773
vn -0.70128375291824 0.36663144826889 -0.61137747764587
vn -0.81997740268707 0.53374195098877 0.20677652955055
vn -0.84600579738617 0.50071829557419 0.18318112194538
vn 0.21557605266571 0.53876960277557 0.81440424919128
vn 0.21557632088661 0.53876948356628 0.81440424919128
vn 0.07247537374496 -0.92658030986786 0.36904776096344
vn 0.07891350239515 -0.92560416460037 0.37017506361008
vn -0.74747610092163 0.59650206565857 -0.29234346747398
vn -0.74747633934021 0.59650158882141 -0.29234385490417
vn 0.587641954422 0.56662029027939 -0.57759714126587
vn 0.58764225244522 0.56661850214005 -0.57759857177734
vn 0.00000003586062 -1 -0.0000001130644
vn -0.00455241603777 -0.97928321361542 -0.20244424045086
vn 0.00000002319407 -1 -0.00000020584774
vn 0.05317946523428 -0.86521905660629 -0.4985659122467
vn 0.05460822209716 -0.86548608541489 -0.49794754385948
vn 0.23927761614323 -0.94203674793243 -0.23518703877926
vn 0.09132280945778 -0.92468929290771 -0.36960771679878
vn 0.12908314168453 -0.93260359764099 -0.33702835440636
vn 0.01597011461854 -0.90209025144577 -0.43125188350677
vn -0.35883632302284 -0.84431254863739 -0.39796078205109
vn -0.37855744361877 -0.84726357460022 -0.37261071801186
vn 0.1667959690094 -0.97097909450531 -0.17140229046345
vn 0 -1 0
vn -0.03327684476972 -0.90016859769821 0.43426847457886
vn -0.03853978216648 -0.89619123935699 0.44199094176292
vn -0.40040051937103 -0.91631954908371 -0.00615629600361
vn -0.42031237483025 -0.90717375278473 0.01932070218027
vn 0.0915152579546 -0.9338618516922 0.3457268178463
vn 0.01809274405241 -0.91869062185287 -0.39456334710121
vn 0.0180929582566 -0.91869044303894 -0.39456364512444
vn -0.38033738732338 -0.91707909107208 0.11962216347456
vn -0.00000026046393 1 0.00000021068755
vn -0.00000015523837 1 0.00000016866292
vn -0.00000070611532 1 0.00000016903117
vn -0.32557442784309 -0.88054668903351 0.34443983435631
vn -0.33481726050377 -0.8902981877327 0.30865281820297
vn -0.27219179272652 -0.95496731996536 -0.11810585856438
vn -0.25708866119385 -0.96114265918732 -0.10054946690798
vn -0.34357076883316 -0.89874875545502 0.27241477370262
vn 0.01596930250525 -0.90209013223648 -0.43125215172768
vn -0.38434472680092 -0.90867614746094 0.16305443644524
vn -0.28713858127594 -0.94824343919754 -0.13559441268444
vn -0.1511887460947 -0.89656126499176 0.41631698608398
vn 0.0865238532424 -0.84435033798218 -0.52875906229019
vn -0.00173573265783 -0.91379332542419 0.40617570281029
vn -0.63816410303116 -0.32071673870087 -0.69991958141327
vn -0.63816273212433 -0.32071757316589 -0.69992035627365
vn -0.38018089532852 -0.9172500371933 0.11880587786436
vn 0.17281301319599 -0.95639127492905 0.2354810833931
vn 0.17281270027161 -0.95639133453369 0.23548117280006
vn -0.19586002826691 -0.94957858324051 -0.24482505023479
vn -0.0575913824141 -0.92084014415741 0.38566392660141
vn 0.24428127706051 -0.96493297815323 0.09607803076506
vn -0.63816148042679 -0.32071846723557 -0.69992119073868
vn -0.02678402327001 -0.86040353775024 -0.50890898704529
vn -0.09544299542904 -0.88301908969879 -0.45953014492989
vn 0.28819769620895 -0.95508253574371 -0.06898912042379
vn -0.141926035285 -0.93099880218506 0.33630087971687
vn -0.16541774570942 -0.92907738685608 0.33083567023277
vn -0.33051055669785 -0.61159688234329 0.71882683038712
vn -0.31762504577637 -0.60912024974823 0.72669583559036
vn 0.0660340860486 -0.92751598358154 0.36790430545807
vn 0.29320302605629 -0.95181035995483 -0.08993934094906
vn 0.31877547502518 -0.94373482465744 -0.08801612257957
vn -0.18881259858608 -0.92661201953888 0.32517677545547
vn -0.34331876039505 -0.61393028497696 0.71078962087631
vn 0.33249971270561 -0.90079742670059 -0.27929908037186
vn 0.05603685230017 -0.86575096845627 -0.49732795357704
vn 0.69161301851273 0.66908758878708 0.27201697230339
vn 0.2947980761528 0.46415030956268 -0.83525961637497
vn -0.50877642631531 0.42080783843994 -0.75104415416718
vn -0.62890917062759 0.34084263443947 0.69878429174423
vn -0.42990726232529 0.51671594381332 0.74039471149445
vn 0.77330660820007 0.60383921861649 -0.19332645833492
vn 0.09769695997238 0.38928985595703 -0.91591960191727
vn 0.23927764594555 -0.94203674793243 -0.23518711328506
vn -0.04762623086572 0.42298248410225 -0.90488535165787
vn -0.67144787311554 0.08264488726854 -0.73642897605896
vn 0.15097162127495 0.51934784650803 0.84112149477005
vn -0.39467260241508 0.16991983354092 0.90297329425812
vn -0.00374172255397 0.48258230090141 0.87584263086319
vn -0.83137035369873 0.49124908447266 0.25980308651924
vn 0.73856836557388 0.58185040950775 -0.34053909778595
vn 0.15016032755375 0.36794772744179 -0.91764175891876
vn 0.03294236585498 0.45571154356003 -0.88951772451401
vn 0.46156254410744 0.62561124563217 0.62894397974014
vn -0.90469425916672 0.42583417892456 -0.01391083933413
vn -0.17557898163795 0.51563107967377 0.83862781524658
vn -0.00000014769901 1 0.00000011723633
vn 0.00000002619498 1 0.00000002644333
vn 0.00000007165875 1 0.00000002278809
vn 0.7633683681488 0.61957794427872 -0.18273465335369
vn 0.00000010976387 1 0.00000022183346
vn -0.50173503160477 0.5957573056221 -0.62716442346573
vn -0.08813837170601 0.41642263531685 0.90488880872726
vn 0.58764159679413 0.56662207841873 -0.57759565114975
vn -0.70028740167618 0.44865572452545 0.5552527308464
vn -0.26185595989227 -0.88431543111801 -0.38654583692551
vn 0.03980290144682 0.49497526884079 -0.86799496412277
vn -0.39788475632668 -0.84933316707611 -0.34687301516533
vn 0.68265318870544 0.45294871926308 -0.57343006134033
vn -0.70128512382507 0.36663249135017 -0.61137527227402
vn -0.87006741762161 0.46653056144714 0.15915988385677
vn 0.21557658910751 0.53876936435699 0.81440424919128
vn -0.43974956870079 -0.89700359106064 0.0447758808732
vn -0.74747663736343 0.59650111198425 -0.29234424233437
vn 0 1 0
vn -0.00000000571861 1 0.00000003378382
vn 0.34411746263504 -0.93497705459595 -0.08602926135063
vn 0.17281238734722 -0.95639139413834 0.23548123240471
vn -0.04379873722792 -0.89212137460709 0.44966778159142
vn 0.01809317246079 -0.9186903834343 -0.39456388354301
vn -0.37446931004524 -0.82864618301392 0.41607481241226
vn 0.25704842805862 -0.95910328626633 -0.11851988732815
vn -0.00000047281455 1 0.0000002086222
vn -0.00000084114652 1 0.00000038751557
vn -0.00000069623485 1 0.00000021757324
vn 0.00000001833631 1 0.00000012880345
vn -0.0000000209508 1 0.00000013123643
# 194 normals

vt 0.88300001621246 0.65610003471375 0
vt 0.93149995803833 0.67480003833771 0
vt 0.85379993915558 0.75720000267029 0
vt 0 1 0
vt 0.59829998016357 0.19430005550385 0
vt 0.61389994621277 0.15960001945496 0
vt 0.6324999332428 0.21080005168915 0
vt 0.39199995994568 0.19260001182556 0
vt 0.38370001316071 0.1577000617981 0
vt 0.42320001125336 0.16380000114441 0
vt 0.8396999835968 0.63940000534058 0
vt 0.75759994983673 0.78610002994537 0
vt 0.81354999542236 0.73015004396439 0
vt 0.20589998364449 0.49849998950958 0
vt 0.17599999904633 0.49900007247925 0
vt 0.18569999933243 0.47380006313324 0
vt 0.54390001296997 0.85670000314713 0
vt 0.83579993247986 0.4728000164032 0
vt 0.29904997348785 0.81054997444153 0
vt 0.25360000133514 0.83950001001358 0
vt 0.2441999912262 0.77900004386902 0
vt 0.8095999956131 0.33010005950928 0
vt 0.84969997406006 0.31110000610352 0
vt 0.15239998698235 0.13779997825623 0
vt 0.23664999008179 0.15000009536743 0
vt 0.18469998240471 0.17480003833771 0
vt 0.46209996938705 0.88010001182556 0
vt 0.4264999628067 0.86250001192093 0
vt 0.43040001392364 0.82430005073547 0
vt 0.29839998483658 0.16380000114441 0
vt 0.31559997797012 0.19809997081757 0
vt 0.65209996700287 0.17790007591248 0
vt 0.66670000553131 0.16830003261566 0
vt 0.82939994335175 0.85730004310608 0
vt 0.74179995059967 0.87870001792908 0
vt 0.79139995574951 0.81970000267029 0
vt 0.15360000729561 0.47140002250671 0
vt 0.13389998674393 0.44539999961853 0
vt 0.68449997901916 0.89939999580383 0
vt 0.55320000648499 0.89859998226166 0
vt 0.66159999370575 0.8573499917984 0
vt 0.21879997849464 0.81200003623962 0
vt 0.20759999752045 0.76300001144409 0
vt 0.87889993190765 0.47030007839203 0
vt 0.86699998378754 0.56499999761581 0
vt 0.61510002613068 0.24000000953674 0
vt 0.43379998207092 0.79030001163483 0
vt 0.26024997234344 0.18575012683868 0
vt 0.69029998779297 0.13050007820129 0
vt 0.69389998912811 0.16960000991821 0
vt 0.8989999294281 0.78764998912811 0
vt 0.20859998464584 0.67500001192093 0
vt 0.23420000076294 0.73510003089905 0
vt 0.22344997525215 0.4870001077652 0
vt 0.19290000200272 0.62450003623962 0
vt 0.91369998455048 0.5731999874115 0
vt 0.6411999464035 0.81994998455048 0
vt 0.23510000109673 0.65619999170303 0
vt 0.12999999523163 0.16229999065399 0
vt 0.16459998488426 0.19669997692108 0
vt 0.77389991283417 0.34710001945496 0
vt 0.08059999346733 0.42790007591248 0
vt 0.10419999063015 0.40719997882843 0
vt 0.45169997215271 0.1191999912262 0
vt 0.45039999485016 0.07580006122589 0
vt 0.55610001087189 0.12569999694824 0
vt 0.25859999656677 0.63950002193451 0
vt 0.39939999580383 0.22370004653931 0
vt 0.56679999828339 0.08310008049011 0
vt 0.41850000619888 0.12550008296967 0
vt 0.71289992332458 0.83889997005463 0
vt 0.06260000169277 0.3970000743866 0
vt 0.14129999279976 0.41620004177094 0
vt 0.3095999956131 0.22255003452301 0
vt 0.21349999308586 0.20770001411438 0
vt 0.26679998636246 0.74970000982285 0
vt 0.31599998474121 0.77795004844666 0
vt 0.67019999027252 0.20310008525848 0
vt 0.72060000896454 0.13200008869171 0
vt 0.45300000905991 0.15789997577667 0
vt 0.54649996757507 0.16380000114441 0
vt 0.16789999604225 0.45045006275177 0
vt 0.64579999446869 0.20190000534058 0
# 83 texture coordinates

o Meat
usemtl Mat
f 65/3/2 4/2/2 1/1/1
f 6/7/5 8/6/5 5/5/4
f 10/10/7 12/9/7 9/8/6
f 21/13/9 28/12/9 66/11/8
f 18/16/11 20/15/11 17/14/10
f 30/18/14 6/7/13 50/17/12
f 26/21/16 78/20/16 25/19/15
f 30/18/18 80/23/18 29/22/17
f 33/26/20 35/25/20 58/24/19
f 59/29/21 39/28/21 40/27/21
f 41/31/23 12/9/23 42/30/22
f 43/33/25 7/32/25 6/7/24
f 45/36/27 16/35/27 46/34/26
f 69/38/29 19/37/29 18/16/28
f 49/41/31 51/40/31 72/39/30
f 26/21/33 54/43/33 27/42/32
f 55/45/35 31/44/35 30/18/34
f 66/11/8 57/47/37 2/46/36
f 8/6/39 7/32/38 2/46/36
f 61/48/41 42/30/41 35/25/40
f 79/50/43 44/49/43 43/33/42
f 65/3/45 46/34/45 3/51/44
f 53/53/47 68/52/47 54/43/46
f 50/17/49 40/27/49 51/40/48
f 74/55/52 20/15/51 47/54/50
f 1/1/54 56/56/54 55/45/53
f 51/40/56 57/47/37 70/57/55
f 73/58/57 74/55/57 68/52/57
f 75/60/59 58/24/59 76/59/58
f 25/19/61 39/28/61 59/29/60
f 2/46/36 67/61/62 66/11/8
f 22/63/64 48/62/64 69/38/63
f 4/2/65 3/51/66 21/13/65
f 82/66/68 37/65/68 81/64/67
f 77/68/71 62/67/70 47/54/69
f 82/66/73 8/6/73 32/69/72
f 81/64/75 11/70/75 10/10/74
f 17/14/77 74/55/77 73/58/76
f 13/71/79 72/39/79 16/35/78
f 16/35/80 70/57/81 28/12/80
f 75/60/83 24/72/83 22/63/82
f 29/22/85 80/23/84 79/50/84
f 15/75/88 36/74/87 38/73/86
f 23/77/9 60/76/9 62/67/70
f 35/25/90 15/75/90 58/24/89
f 80/23/91 67/61/91 71/78/91
f 44/49/94 64/79/93 71/78/92
f 11/70/96 14/80/96 77/68/95
f 77/68/71 14/80/98 34/81/97
f 8/6/39 2/46/36 34/81/97
f 39/28/100 23/77/100 57/47/99
f 68/52/102 60/76/102 54/43/101
f 72/39/103 70/57/103 16/35/103
f 47/54/69 38/73/86 36/74/87
f 37/65/105 34/81/105 14/80/104
f 74/55/52 47/54/50 62/67/106
f 1/1/109 55/45/108 65/3/107
f 48/62/111 38/73/111 52/82/110
f 24/72/112 76/59/113 15/75/112
f 48/62/111 24/72/114 38/73/111
f 77/68/71 34/81/97 2/46/36
f 44/49/94 71/78/92 63/83/115
f 74/55/116 62/67/116 68/52/116
f 71/78/9 67/61/62 2/46/36
f 24/72/112 15/75/112 38/73/117
f 39/28/118 57/47/118 40/27/118
f 42/30/119 36/74/119 35/25/119
f 51/40/56 70/57/55 72/39/120
f 7/32/122 63/83/122 2/46/121
f 54/43/123 60/76/123 27/42/123
f 46/34/125 21/13/125 3/51/124
f 58/24/126 15/75/126 76/59/126
f 40/27/127 57/47/127 51/40/127
f 4/2/65 21/13/65 66/11/128
f 7/32/122 44/49/129 63/83/122
f 12/9/131 36/74/87 42/30/130
f 56/56/132 4/2/132 66/11/132
f 78/20/134 60/76/134 23/77/133
f 19/37/135 48/62/136 52/82/135
f 16/35/80 28/12/80 46/34/137
f 80/23/139 66/11/139 67/61/138
f 78/20/134 27/42/140 60/76/134
f 19/37/135 52/82/135 47/54/141
f 8/6/39 34/81/97 32/69/142
f 77/68/71 2/46/36 57/47/37
f 35/25/90 36/74/143 15/75/90
f 65/3/2 3/51/144 4/2/2
f 6/7/5 7/32/145 8/6/5
f 10/10/7 11/70/146 12/9/7
f 66/11/8 70/57/55 57/47/37
f 18/16/11 19/37/147 20/15/11
f 36/74/87 77/68/71 47/54/69
f 26/21/16 27/42/148 78/20/16
f 30/18/18 31/44/149 80/23/18
f 33/26/20 61/48/150 35/25/20
f 64/79/93 80/23/151 71/78/92
f 41/31/23 9/8/152 12/9/23
f 43/33/25 44/49/153 7/32/25
f 45/36/27 13/71/154 16/35/27
f 69/38/29 48/62/155 19/37/29
f 49/41/31 50/17/156 51/40/31
f 26/21/33 53/53/157 54/43/33
f 55/45/35 56/56/158 31/44/35
f 47/54/69 52/82/9 38/73/86
f 77/68/71 57/47/37 62/67/70
f 61/48/41 41/31/159 42/30/41
f 79/50/43 64/79/160 44/49/43
f 65/3/45 45/36/161 46/34/45
f 53/53/47 73/58/162 68/52/47
f 50/17/49 59/29/163 40/27/49
f 59/29/166 9/8/165 73/58/164
f 1/1/54 4/2/167 56/56/54
f 57/47/37 23/77/9 62/67/70
f 45/36/168 65/3/107 55/45/108
f 75/60/59 33/26/169 58/24/59
f 25/19/61 78/20/170 39/28/61
f 79/50/84 80/23/84 64/79/171
f 22/63/64 24/72/172 48/62/64
f 12/9/131 11/70/173 77/68/71
f 82/66/68 32/69/174 37/65/68
f 11/70/96 37/65/175 14/80/96
f 82/66/73 5/5/176 8/6/73
f 81/64/75 37/65/177 11/70/75
f 17/14/77 20/15/178 74/55/77
f 13/71/79 49/41/179 72/39/79
f 68/52/102 62/67/180 60/76/102
f 75/60/83 76/59/181 24/72/83
f 12/9/131 77/68/71 36/74/87
f 82/66/182 81/64/182 10/10/182
f 82/66/182 10/10/182 5/5/183
f 5/5/183 10/10/182 9/8/165
f 80/23/139 31/44/184 66/11/139
f 5/5/183 9/8/165 59/29/166
f 79/50/182 43/33/182 6/7/13
f 6/7/13 5/5/183 59/29/166
f 61/48/182 33/26/182 75/60/182
f 46/34/125 28/12/185 21/13/125
f 75/60/182 22/63/182 61/48/182
f 39/28/100 78/20/186 23/77/100
f 37/65/105 32/69/187 34/81/105
f 61/48/182 22/63/182 18/16/182
f 41/31/182 61/48/182 18/16/182
f 22/63/182 69/38/182 18/16/182
f 66/11/8 28/12/9 70/57/55
f 9/8/165 41/31/182 17/14/182
f 17/14/182 73/58/164 9/8/165
f 41/31/182 18/16/182 17/14/182
f 29/22/182 79/50/182 6/7/13
f 20/15/51 19/37/188 47/54/50
f 30/18/14 29/22/182 6/7/13
f 31/44/189 56/56/189 66/11/189
f 73/58/164 53/53/191 25/19/190
f 26/21/192 25/19/190 53/53/191
f 25/19/190 59/29/166 73/58/164
f 2/46/36 63/83/98 71/78/9
f 50/17/12 49/41/193 30/18/14
f 49/41/193 13/71/194 30/18/14
f 55/45/108 30/18/14 13/71/194
f 59/29/166 50/17/12 6/7/13
f 13/71/194 45/36/168 55/45/108

